<svg width="280" height="47" viewBox="0 0 280 47" fill="none" xmlns="http://www.w3.org/2000/svg">
<rect x="1.5" y="3" width="34" height="27" stroke="#15C9E1" stroke-width="3"/>
<rect x="19.5" y="18" width="34" height="27" stroke="#15C9E1" stroke-width="3"/>
<line x1="36.9603" y1="1.34767" x2="54.9603" y2="16.3477" stroke="#15C9E1" stroke-width="3"/>
<line x1="1.96028" y1="1.34767" x2="19.9603" y2="16.3477" stroke="#15C9E1" stroke-width="3"/>
<line x1="0.960277" y1="30.3477" x2="18.9603" y2="45.3477" stroke="#15C9E1" stroke-width="3"/>
<line x1="33.9295" y1="29.3227" x2="51.1969" y2="42.9548" stroke="#15C9E1" stroke-width="3"/>
<path d="M61.2756 10.8182H68.1023L75.3125 28.4091H75.6193L82.8295 10.8182H89.6562V37H84.2869V19.9588H84.0696L77.294 36.8722H73.6378L66.8622 19.8949H66.6449V37H61.2756V10.8182ZM102.987 37.3835C101.001 37.3835 99.2837 36.9616 97.8349 36.1179C96.3945 35.2656 95.2823 34.081 94.4982 32.5639C93.7141 31.0384 93.3221 29.2699 93.3221 27.2585C93.3221 25.2301 93.7141 23.4574 94.4982 21.9403C95.2823 20.4148 96.3945 19.2301 97.8349 18.3864C99.2837 17.5341 101.001 17.108 102.987 17.108C104.973 17.108 106.686 17.5341 108.126 18.3864C109.575 19.2301 110.691 20.4148 111.475 21.9403C112.26 23.4574 112.652 25.2301 112.652 27.2585C112.652 29.2699 112.26 31.0384 111.475 32.5639C110.691 34.081 109.575 35.2656 108.126 36.1179C106.686 36.9616 104.973 37.3835 102.987 37.3835ZM103.012 33.1648C103.916 33.1648 104.67 32.9091 105.275 32.3977C105.88 31.8778 106.336 31.1705 106.643 30.2756C106.958 29.3807 107.116 28.3622 107.116 27.2202C107.116 26.0781 106.958 25.0597 106.643 24.1648C106.336 23.2699 105.88 22.5625 105.275 22.0426C104.67 21.5227 103.916 21.2628 103.012 21.2628C102.1 21.2628 101.333 21.5227 100.711 22.0426C100.098 22.5625 99.6332 23.2699 99.3178 24.1648C99.011 25.0597 98.8576 26.0781 98.8576 27.2202C98.8576 28.3622 99.011 29.3807 99.3178 30.2756C99.6332 31.1705 100.098 31.8778 100.711 32.3977C101.333 32.9091 102.1 33.1648 103.012 33.1648ZM133.867 17.3636L127.002 37H120.865L114 17.3636H119.753L123.831 31.4134H124.036L128.101 17.3636H133.867ZM136.654 37V17.3636H142.1V37H136.654ZM139.39 14.8324C138.58 14.8324 137.885 14.5639 137.306 14.027C136.735 13.4815 136.449 12.8295 136.449 12.071C136.449 11.321 136.735 10.6776 137.306 10.1406C137.885 9.59517 138.58 9.32244 139.39 9.32244C140.199 9.32244 140.89 9.59517 141.461 10.1406C142.04 10.6776 142.33 11.321 142.33 12.071C142.33 12.8295 142.04 13.4815 141.461 14.027C140.89 14.5639 140.199 14.8324 139.39 14.8324ZM155.411 37.3835C153.391 37.3835 151.653 36.9744 150.195 36.1562C148.746 35.3295 147.63 34.1619 146.846 32.6534C146.062 31.1364 145.67 29.3423 145.67 27.2713C145.67 25.2514 146.062 23.4787 146.846 21.9531C147.63 20.4276 148.734 19.2386 150.157 18.3864C151.589 17.5341 153.268 17.108 155.194 17.108C156.489 17.108 157.695 17.3168 158.812 17.7344C159.937 18.1435 160.917 18.7614 161.752 19.5881C162.596 20.4148 163.252 21.4545 163.721 22.7074C164.19 23.9517 164.424 25.4091 164.424 27.0795V28.5753H147.843V25.2003H159.298C159.298 24.4162 159.127 23.7216 158.786 23.1165C158.445 22.5114 157.972 22.0384 157.367 21.6974C156.771 21.348 156.076 21.1733 155.283 21.1733C154.457 21.1733 153.724 21.3651 153.085 21.7486C152.454 22.1236 151.96 22.6307 151.602 23.2699C151.244 23.9006 151.06 24.6037 151.052 25.3793V28.5881C151.052 29.5597 151.231 30.3991 151.589 31.1065C151.955 31.8139 152.471 32.3594 153.136 32.7429C153.8 33.1264 154.589 33.3182 155.501 33.3182C156.106 33.3182 156.66 33.233 157.163 33.0625C157.665 32.892 158.096 32.6364 158.454 32.2955C158.812 31.9545 159.085 31.5369 159.272 31.0426L164.309 31.375C164.053 32.5852 163.529 33.642 162.737 34.5455C161.952 35.4403 160.938 36.1392 159.694 36.642C158.458 37.1364 157.031 37.3835 155.411 37.3835ZM168.08 37V10.8182H178.563C180.489 10.8182 182.096 11.1037 183.383 11.6747C184.67 12.2457 185.637 13.0384 186.285 14.0526C186.933 15.0582 187.256 16.2173 187.256 17.5298C187.256 18.5526 187.052 19.4517 186.643 20.2273C186.234 20.9943 185.671 21.625 184.955 22.1193C184.248 22.6051 183.438 22.9503 182.526 23.1548V23.4105C183.523 23.4531 184.457 23.7344 185.326 24.2543C186.204 24.7741 186.915 25.5028 187.461 26.4403C188.006 27.3693 188.279 28.4773 188.279 29.7642C188.279 31.1534 187.934 32.3935 187.244 33.4844C186.562 34.5668 185.552 35.4233 184.214 36.054C182.876 36.6847 181.227 37 179.266 37H168.08ZM173.616 32.4744H178.129C179.671 32.4744 180.796 32.1804 181.504 31.5923C182.211 30.9957 182.565 30.2031 182.565 29.2145C182.565 28.4901 182.39 27.8509 182.04 27.2969C181.691 26.7429 181.192 26.3082 180.545 25.9929C179.906 25.6776 179.143 25.5199 178.256 25.5199H173.616V32.4744ZM173.616 21.7741H177.719C178.478 21.7741 179.151 21.642 179.739 21.3778C180.336 21.1051 180.805 20.7216 181.146 20.2273C181.495 19.733 181.67 19.1406 181.67 18.4503C181.67 17.5043 181.333 16.7415 180.66 16.1619C179.995 15.5824 179.049 15.2926 177.822 15.2926H173.616V21.7741ZM200.651 37.3835C198.665 37.3835 196.948 36.9616 195.499 36.1179C194.059 35.2656 192.946 34.081 192.162 32.5639C191.378 31.0384 190.986 29.2699 190.986 27.2585C190.986 25.2301 191.378 23.4574 192.162 21.9403C192.946 20.4148 194.059 19.2301 195.499 18.3864C196.948 17.5341 198.665 17.108 200.651 17.108C202.637 17.108 204.35 17.5341 205.79 18.3864C207.239 19.2301 208.355 20.4148 209.14 21.9403C209.924 23.4574 210.316 25.2301 210.316 27.2585C210.316 29.2699 209.924 31.0384 209.14 32.5639C208.355 34.081 207.239 35.2656 205.79 36.1179C204.35 36.9616 202.637 37.3835 200.651 37.3835ZM200.676 33.1648C201.58 33.1648 202.334 32.9091 202.939 32.3977C203.544 31.8778 204 31.1705 204.307 30.2756C204.623 29.3807 204.78 28.3622 204.78 27.2202C204.78 26.0781 204.623 25.0597 204.307 24.1648C204 23.2699 203.544 22.5625 202.939 22.0426C202.334 21.5227 201.58 21.2628 200.676 21.2628C199.765 21.2628 198.998 21.5227 198.375 22.0426C197.762 22.5625 197.297 23.2699 196.982 24.1648C196.675 25.0597 196.522 26.0781 196.522 27.2202C196.522 28.3622 196.675 29.3807 196.982 30.2756C197.297 31.1705 197.762 31.8778 198.375 32.3977C198.998 32.9091 199.765 33.1648 200.676 33.1648ZM217.705 17.3636L221.31 24.2287L225.005 17.3636H230.591L224.902 27.1818L230.745 37H225.184L221.31 30.2116L217.5 37H211.875L217.705 27.1818L212.08 17.3636H217.705Z" fill="#15C9E1"/>
</svg>
